<?xml version="1.0" standalone="no"?>
<!DOCTYPE svg PUBLIC "-//W3C//DTD SVG 20010904//EN"
 "http://www.w3.org/TR/2001/REC-SVG-20010904/DTD/svg10.dtd">
<svg version="1.0" xmlns="http://www.w3.org/2000/svg"
 width="512.000000pt" height="512.000000pt" viewBox="0 0 512.000000 512.000000"
 preserveAspectRatio="xMidYMid meet">
<metadata>
Created by potrace 1.14, written by Peter Selinger 2001-2017
</metadata>
<g transform="translate(0.000000,512.000000) scale(0.100000,-0.100000)"
fill="#000000" stroke="none">
<path d="M2297 5069 c-61 -63 -179 -194 -297 -329 -46 -52 -99 -113 -119 -135
-31 -34 -217 -257 -326 -390 -375 -457 -743 -1008 -932 -1395 -81 -166 -157
-354 -179 -440 -2 -8 -12 -49 -23 -90 -30 -115 -39 -202 -36 -350 7 -280 75
-560 201 -816 153 -314 393 -588 688 -786 249 -167 517 -270 841 -323 90 -15
449 -14 553 1 969 140 1697 947 1727 1914 8 248 -48 484 -184 784 -17 38 -30
70 -29 71 2 2 39 27 83 56 94 63 212 177 278 270 90 127 166 319 184 464 69
552 -274 1046 -814 1176 -169 41 -400 27 -578 -33 -111 -38 -308 -151 -340
-195 -9 -11 -35 13 -125 118 -120 139 -174 200 -275 309 -157 170 -149 162
-199 167 -46 5 -48 4 -99 -48z"/>
</g>
</svg>
